# xmcd
#
# Track frame offsets: 
#        150
#        31511
#        63021
#        90042
#        143167
#        178493
#        206285
#        234410
#        263799
#        292424
#        327760
#
# Disc length: 4779 seconds
#
# Revision: 0
# Processed by: cddbd v1.5.2PL0 Copyright (c) Steve Scherf et al.
# Submitted via: ExactAudioCopy v1.3
#
DISCID=9112a90b
DTITLE=Various Artist - Akella Presents - vol. 185 - Long Time Rockin
DTITLE=' Blues  CD1
DYEAR=2019
DGENRE=Blues
TTITLE0=Glenn Braadland Band - Love Is For All Time
TTITLE1=Alvaro Assmar and Mojo Blues Band - Driftin' Blues
TTITLE2=The Insomniacs - Broke and Lonely
TTITLE3=Catfish - How Blue Can You Get
TTITLE4=The Alex Fawcett Band - No Love No More
TTITLE5=Dawn Tyler Watson - Alligator
TTITLE6=Bad Bob Bates - I'm On The Floor
TTITLE7=Lol Goodman Band - Beer In My Hand
TTITLE8=John Verity - Where's The Love
TTITLE9=Ron Evans Group - Back Streets of My Mind
TTITLE10=Hans Theessink - Missing You
EXTD=
EXTT0=
EXTT1=
EXTT2=
EXTT3=
EXTT4=
EXTT5=
EXTT6=
EXTT7=
EXTT8=
EXTT9=
EXTT10=
PLAYORDER=
